<mxfile host="Electron" modified="2023-10-30T15:11:05.934Z" agent="Mozilla/5.0 (Windows NT 10.0; Win64; x64) AppleWebKit/537.36 (KHTML, like Gecko) draw.io/21.6.8 Chrome/114.0.5735.289 Electron/25.5.0 Safari/537.36" etag="ydhHptisvTXsuTdg54n0" version="21.6.8" type="device">
  <diagram name="Page-1" id="KyDVVuXnFHPWSNTXmVtw">
    <mxGraphModel dx="932" dy="1453" grid="1" gridSize="10" guides="1" tooltips="1" connect="1" arrows="1" fold="1" page="1" pageScale="1" pageWidth="2336" pageHeight="1654" math="0" shadow="0">
      <root>
        <mxCell id="0" />
        <mxCell id="1" parent="0" />
        <mxCell id="CFpq3E_YITie4qlD1P3y-35" value="&lt;p style=&quot;margin:0px;margin-top:4px;margin-left:10px;text-align:left;&quot;&gt;&lt;b&gt;UC &lt;/b&gt;Player&lt;/p&gt;" style="html=1;shape=mxgraph.sysml.package;xSize=90;align=left;spacingLeft=10;overflow=fill;recursiveResize=0;" vertex="1" parent="1">
          <mxGeometry x="430" y="660" width="790" height="640" as="geometry" />
        </mxCell>
        <mxCell id="CFpq3E_YITie4qlD1P3y-2" value="PlayerGun ESP32" style="rounded=0;whiteSpace=wrap;html=1;verticalAlign=top;" vertex="1" parent="1">
          <mxGeometry x="560" y="680" width="530" height="590" as="geometry" />
        </mxCell>
        <mxCell id="CFpq3E_YITie4qlD1P3y-25" style="rounded=0;orthogonalLoop=1;jettySize=auto;html=1;" edge="1" parent="1" source="CFpq3E_YITie4qlD1P3y-1" target="CFpq3E_YITie4qlD1P3y-8">
          <mxGeometry relative="1" as="geometry" />
        </mxCell>
        <mxCell id="CFpq3E_YITie4qlD1P3y-26" style="rounded=0;orthogonalLoop=1;jettySize=auto;html=1;" edge="1" parent="1" source="CFpq3E_YITie4qlD1P3y-1" target="CFpq3E_YITie4qlD1P3y-6">
          <mxGeometry relative="1" as="geometry" />
        </mxCell>
        <mxCell id="CFpq3E_YITie4qlD1P3y-1" value="Player" style="shape=umlActor;html=1;verticalLabelPosition=bottom;verticalAlign=top;align=center;" vertex="1" parent="1">
          <mxGeometry x="450" y="990" width="30" height="60" as="geometry" />
        </mxCell>
        <mxCell id="CFpq3E_YITie4qlD1P3y-3" value="UC05_GameOver" style="shape=ellipse;html=1;strokeWidth=3;fontStyle=1;whiteSpace=wrap;align=center;perimeter=ellipsePerimeter;" vertex="1" parent="1">
          <mxGeometry x="905" y="1070" width="120" height="60" as="geometry" />
        </mxCell>
        <mxCell id="CFpq3E_YITie4qlD1P3y-4" value="UC06_SendPostGameData" style="shape=ellipse;html=1;strokeWidth=3;fontStyle=1;whiteSpace=wrap;align=center;perimeter=ellipsePerimeter;" vertex="1" parent="1">
          <mxGeometry x="870" y="960" width="190" height="60" as="geometry" />
        </mxCell>
        <mxCell id="CFpq3E_YITie4qlD1P3y-5" value="UC043_ReceivingHits" style="shape=ellipse;html=1;strokeWidth=3;fontStyle=1;whiteSpace=wrap;align=center;perimeter=ellipsePerimeter;" vertex="1" parent="1">
          <mxGeometry x="730" y="1170" width="150" height="60" as="geometry" />
        </mxCell>
        <mxCell id="CFpq3E_YITie4qlD1P3y-6" value="UC042_Shooting" style="shape=ellipse;html=1;strokeWidth=3;fontStyle=1;whiteSpace=wrap;align=center;perimeter=ellipsePerimeter;" vertex="1" parent="1">
          <mxGeometry x="590" y="1160" width="120" height="60" as="geometry" />
        </mxCell>
        <mxCell id="CFpq3E_YITie4qlD1P3y-7" value="UC041_GameState" style="shape=ellipse;html=1;strokeWidth=3;fontStyle=1;whiteSpace=wrap;align=center;perimeter=ellipsePerimeter;" vertex="1" parent="1">
          <mxGeometry x="690" y="1070" width="120" height="60" as="geometry" />
        </mxCell>
        <mxCell id="CFpq3E_YITie4qlD1P3y-8" value="UC03_ReadyUp" style="shape=ellipse;html=1;strokeWidth=3;fontStyle=1;whiteSpace=wrap;align=center;perimeter=ellipsePerimeter;" vertex="1" parent="1">
          <mxGeometry x="690" y="960" width="120" height="60" as="geometry" />
        </mxCell>
        <mxCell id="CFpq3E_YITie4qlD1P3y-9" value="UC02_GameSetup" style="shape=ellipse;html=1;strokeWidth=3;fontStyle=1;whiteSpace=wrap;align=center;perimeter=ellipsePerimeter;" vertex="1" parent="1">
          <mxGeometry x="690" y="840" width="120" height="60" as="geometry" />
        </mxCell>
        <mxCell id="CFpq3E_YITie4qlD1P3y-10" value="UC01_Connect" style="shape=ellipse;html=1;strokeWidth=3;fontStyle=1;whiteSpace=wrap;align=center;perimeter=ellipsePerimeter;" vertex="1" parent="1">
          <mxGeometry x="690" y="730" width="120" height="60" as="geometry" />
        </mxCell>
        <mxCell id="CFpq3E_YITie4qlD1P3y-13" value="&amp;lt;&amp;lt;include&amp;gt;&amp;gt;" style="edgeStyle=none;html=1;endArrow=open;verticalAlign=bottom;dashed=1;labelBackgroundColor=none;rounded=0;" edge="1" parent="1" source="CFpq3E_YITie4qlD1P3y-10" target="CFpq3E_YITie4qlD1P3y-9">
          <mxGeometry x="0.2" y="40" width="160" relative="1" as="geometry">
            <mxPoint x="840" y="990" as="sourcePoint" />
            <mxPoint x="1000" y="990" as="targetPoint" />
            <mxPoint as="offset" />
          </mxGeometry>
        </mxCell>
        <mxCell id="CFpq3E_YITie4qlD1P3y-14" value="&amp;lt;&amp;lt;include&amp;gt;&amp;gt;" style="edgeStyle=none;html=1;endArrow=open;verticalAlign=bottom;dashed=1;labelBackgroundColor=none;rounded=0;" edge="1" parent="1" source="CFpq3E_YITie4qlD1P3y-9" target="CFpq3E_YITie4qlD1P3y-8">
          <mxGeometry x="0.2" y="40" width="160" relative="1" as="geometry">
            <mxPoint x="819.17" y="920" as="sourcePoint" />
            <mxPoint x="819.17" y="970" as="targetPoint" />
            <mxPoint as="offset" />
          </mxGeometry>
        </mxCell>
        <mxCell id="CFpq3E_YITie4qlD1P3y-16" value="&amp;lt;&amp;lt;include&amp;gt;&amp;gt;" style="edgeStyle=none;html=1;endArrow=open;verticalAlign=bottom;dashed=1;labelBackgroundColor=none;rounded=0;" edge="1" parent="1" source="CFpq3E_YITie4qlD1P3y-8" target="CFpq3E_YITie4qlD1P3y-7">
          <mxGeometry x="0.2" y="40" width="160" relative="1" as="geometry">
            <mxPoint x="750" y="1000" as="sourcePoint" />
            <mxPoint x="760" y="970" as="targetPoint" />
            <mxPoint as="offset" />
          </mxGeometry>
        </mxCell>
        <mxCell id="CFpq3E_YITie4qlD1P3y-18" value="&amp;lt;&amp;lt;extend&amp;gt;&amp;gt;" style="edgeStyle=none;html=1;startArrow=open;endArrow=none;startSize=12;verticalAlign=bottom;dashed=1;labelBackgroundColor=none;rounded=0;" edge="1" parent="1" source="CFpq3E_YITie4qlD1P3y-7" target="CFpq3E_YITie4qlD1P3y-6">
          <mxGeometry x="1" y="-24" width="160" relative="1" as="geometry">
            <mxPoint x="700" y="1060" as="sourcePoint" />
            <mxPoint x="860" y="1060" as="targetPoint" />
            <mxPoint x="-3" y="4" as="offset" />
          </mxGeometry>
        </mxCell>
        <mxCell id="CFpq3E_YITie4qlD1P3y-19" value="&amp;lt;&amp;lt;extend&amp;gt;&amp;gt;" style="edgeStyle=none;html=1;startArrow=open;endArrow=none;startSize=12;verticalAlign=bottom;dashed=1;labelBackgroundColor=none;rounded=0;" edge="1" parent="1" source="CFpq3E_YITie4qlD1P3y-7" target="CFpq3E_YITie4qlD1P3y-5">
          <mxGeometry x="0.7154" y="21" width="160" relative="1" as="geometry">
            <mxPoint x="728" y="1135" as="sourcePoint" />
            <mxPoint x="692" y="1165" as="targetPoint" />
            <mxPoint as="offset" />
          </mxGeometry>
        </mxCell>
        <mxCell id="CFpq3E_YITie4qlD1P3y-20" value="&amp;lt;&amp;lt;include&amp;gt;&amp;gt;" style="edgeStyle=none;html=1;endArrow=open;verticalAlign=bottom;dashed=1;labelBackgroundColor=none;rounded=0;" edge="1" parent="1" source="CFpq3E_YITie4qlD1P3y-7" target="CFpq3E_YITie4qlD1P3y-3">
          <mxGeometry x="0.0526" width="160" relative="1" as="geometry">
            <mxPoint x="760" y="1030" as="sourcePoint" />
            <mxPoint x="760" y="1080" as="targetPoint" />
            <mxPoint as="offset" />
          </mxGeometry>
        </mxCell>
        <mxCell id="CFpq3E_YITie4qlD1P3y-21" value="&amp;lt;&amp;lt;include&amp;gt;&amp;gt;" style="edgeStyle=none;html=1;endArrow=open;verticalAlign=bottom;dashed=1;labelBackgroundColor=none;rounded=0;" edge="1" parent="1" source="CFpq3E_YITie4qlD1P3y-3" target="CFpq3E_YITie4qlD1P3y-4">
          <mxGeometry x="-0.2" y="35" width="160" relative="1" as="geometry">
            <mxPoint x="820" y="1110" as="sourcePoint" />
            <mxPoint x="915" y="1110" as="targetPoint" />
            <mxPoint as="offset" />
          </mxGeometry>
        </mxCell>
        <mxCell id="CFpq3E_YITie4qlD1P3y-30" style="rounded=0;orthogonalLoop=1;jettySize=auto;html=1;" edge="1" parent="1" source="CFpq3E_YITie4qlD1P3y-23" target="CFpq3E_YITie4qlD1P3y-10">
          <mxGeometry relative="1" as="geometry" />
        </mxCell>
        <mxCell id="CFpq3E_YITie4qlD1P3y-23" value="GameLeader" style="shape=umlActor;html=1;verticalLabelPosition=bottom;verticalAlign=top;align=center;" vertex="1" parent="1">
          <mxGeometry x="1153" y="860" width="30" height="60" as="geometry" />
        </mxCell>
        <mxCell id="CFpq3E_YITie4qlD1P3y-31" style="rounded=0;orthogonalLoop=1;jettySize=auto;html=1;" edge="1" parent="1" source="CFpq3E_YITie4qlD1P3y-23" target="CFpq3E_YITie4qlD1P3y-9">
          <mxGeometry relative="1" as="geometry">
            <mxPoint x="1163" y="895" as="sourcePoint" />
            <mxPoint x="811" y="786" as="targetPoint" />
          </mxGeometry>
        </mxCell>
        <mxCell id="CFpq3E_YITie4qlD1P3y-32" style="rounded=0;orthogonalLoop=1;jettySize=auto;html=1;" edge="1" parent="1" source="CFpq3E_YITie4qlD1P3y-23" target="CFpq3E_YITie4qlD1P3y-8">
          <mxGeometry relative="1" as="geometry">
            <mxPoint x="1178" y="937" as="sourcePoint" />
            <mxPoint x="820" y="920" as="targetPoint" />
          </mxGeometry>
        </mxCell>
        <mxCell id="CFpq3E_YITie4qlD1P3y-33" style="rounded=0;orthogonalLoop=1;jettySize=auto;html=1;" edge="1" parent="1" source="CFpq3E_YITie4qlD1P3y-23" target="CFpq3E_YITie4qlD1P3y-3">
          <mxGeometry relative="1" as="geometry">
            <mxPoint x="1163" y="904" as="sourcePoint" />
            <mxPoint x="814" y="987" as="targetPoint" />
          </mxGeometry>
        </mxCell>
        <mxCell id="CFpq3E_YITie4qlD1P3y-39" value="&amp;lt;&amp;lt;include&amp;gt;&amp;gt;" style="edgeStyle=none;html=1;endArrow=open;verticalAlign=bottom;dashed=1;labelBackgroundColor=none;rounded=0;" edge="1" parent="1" source="CFpq3E_YITie4qlD1P3y-4" target="CFpq3E_YITie4qlD1P3y-9">
          <mxGeometry x="-0.2523" y="-20" width="160" relative="1" as="geometry">
            <mxPoint x="930" y="940" as="sourcePoint" />
            <mxPoint x="930" y="890" as="targetPoint" />
            <mxPoint y="1" as="offset" />
          </mxGeometry>
        </mxCell>
      </root>
    </mxGraphModel>
  </diagram>
</mxfile>
